<?xml version="1.0" encoding="UTF-8"?>
<svg width="420px" height="237px" viewBox="0 0 420 237" version="1.1" xmlns="http://www.w3.org/2000/svg" xmlns:xlink="http://www.w3.org/1999/xlink">
    <!-- Generator: Sketch 46.2 (44496) - http://www.bohemiancoding.com/sketch -->
    <title>Fill 1</title>
    <desc>Created with Sketch.</desc>
    <defs></defs>
    <g id="Page-1" stroke="none" stroke-width="1" fill="none" fill-rule="evenodd">
        <g id="Artboard-Copy" transform="translate(-107.000000, -180.000000)" fill="#585858">
            <g id="Page-1" transform="translate(107.000000, 180.000000)">
                <path d="M0,236.651 L419.201,236.651 L419.201,0 L0,0 L0,236.651 Z M20.163,218.489 L20.163,18.163 L399.039,18.163 L399.039,218.489 L20.163,218.489 Z M43.9727,128.8977 L107.4047,39.6227 L43.9727,39.6227 L43.9727,128.8977 Z M195.7715,109.7277 L134.6885,194.6787 L195.7715,194.6787 L195.7715,109.7277 Z M105.0547,194.6789 L200.8167,39.6229 L137.3837,39.6229 L41.6227,194.6789 L105.0547,194.6789 Z M224.087,195.213 L285.803,195.213 L285.803,39.088 L224.087,39.088 L224.087,195.213 Z M312.885,195.213 L374.601,195.213 L374.601,39.088 L312.885,39.088 L312.885,195.213 Z" id="Fill-1"></path>
            </g>
        </g>
    </g>
</svg>